<svg width="50" height="50" viewBox="0 0 50 50" fill="none" xmlns="http://www.w3.org/2000/svg">
<rect width="50" height="50" rx="8" fill="white"/>
<path d="M34.1011 26.7339C33.8645 31.5949 29.8409 35.4729 24.9252 35.4729C20.0094 35.4729 15.7492 31.3583 15.7492 26.2969C15.7492 21.2355 19.8638 17.1027 24.9252 17.1027C25.1618 17.1027 25.3985 17.1209 25.6352 17.1391C24.9616 17.0117 24.2697 16.9388 23.5597 16.9388C17.7154 16.9388 13 21.6725 13 27.4985C13 33.3245 17.7336 38.0582 23.5597 38.0582C29.3857 38.0582 34.1194 33.3245 34.1194 27.4985C34.1376 27.2436 34.1194 26.9887 34.1011 26.7339Z" fill="#0F172A"/>
<path d="M42.2758 11.0017C37.0688 10.9471 30.296 12.1123 23.4869 23.2546C23.4322 22.7995 24.033 21.3247 24.033 21.3247C24.033 21.3247 19.791 25.3848 21.3567 28.407C22.9225 31.4475 26.2906 30.7556 27.3648 28.8622C28.348 27.1144 27.9474 27.4785 28.9488 22.7266C29.9865 17.9948 32.1895 12.2598 42.2758 11.0017Z" fill="#0F172A"/>
</svg>
